<?xml version="1.0" encoding="utf-8"?>
<!-- Generator: Adobe Illustrator 26.0.1, SVG Export Plug-In . SVG Version: 6.00 Build 0)  -->
<svg version="1.1"
	 id="svg2" sodipodi:docname="1096.eps" xmlns:inkscape="http://www.inkscape.org/namespaces/inkscape" xmlns:sodipodi="http://sodipodi.sourceforge.net/DTD/sodipodi-0.dtd" xmlns:svg="http://www.w3.org/2000/svg"
	 xmlns="http://www.w3.org/2000/svg" xmlns:xlink="http://www.w3.org/1999/xlink" x="0px" y="0px" viewBox="0 0 2400 1760"
	 style="enable-background:new 0 0 2400 1760;" xml:space="preserve">
<style type="text/css">
	.st0{fill:#040606;}
	.st1{fill:#060707;}
</style>
<sodipodi:namedview  bordercolor="#000000" borderopacity="0.25" id="namedview4" inkscape:deskcolor="#d1d1d1" inkscape:pagecheckerboard="0" inkscape:pageopacity="0.0" inkscape:showpageshadow="2" pagecolor="#ffffff">
	</sodipodi:namedview>
<path id="path14" class="st0" d="M2785.8,1152.3l-578.4-333.9l0.5-0.8l578.4,333.9L2785.8,1152.3"/>
<path id="path16" class="st0" d="M1919.5,874l-0.5-0.8l578.4-333.9l0.5,0.8L1919.5,874"/>
<path id="path18" class="st0" d="M1057.2,1094l-0.4-0.7l454.8-262.6l0.4,0.7L1057.2,1094"/>
<path id="path20" class="st0" d="M669.8,1981.5l-0.5-0.8l578.4-333.9l0.5,0.8L669.8,1981.5"/>
<path id="path22" class="st0" d="M719.1,1343.2l-424.4-245l0.4-0.7l424.4,245L719.1,1343.2"/>
<path id="path24" class="st0" d="M536.4,1348.5l-424.4-245l0.4-0.7l424.4,245L536.4,1348.5"/>
<path id="path26" class="st0" d="M1964.4,1010.5l-424.4-245l0.4-0.7l424.4,245L1964.4,1010.5"/>
<path id="path28" class="st0" d="M1489.1,1565.5l-337.7-195l0.4-0.6l337.7,195L1489.1,1565.5"/>
<path id="path30" class="st0" d="M672.3,928.4l95.5,55.1l95.5-55.1V818.1l-95.5-55.1l-95.5,55.1V928.4z M767.8,984.6l-0.2-0.1
	l-96.2-55.6V817.5l0.2-0.1l96.2-55.6l96.5,55.7v111.4l-0.2,0.1L767.8,984.6"/>
<path id="path32" class="st0" d="M1056.2,1039.2l95.5,55.1l95.5-55.1V928.9l-95.5-55.1l-95.5,55.1V1039.2z M1151.7,1095.4l-0.2-0.1
	l-96.2-55.6V928.4l0.2-0.1l96.2-55.6l0.2,0.1l96.2,55.6v111.4l-0.2,0.1L1151.7,1095.4"/>
<path id="path34" class="st0" d="M961,1038.1l94.7,54.7l94.7-54.7V928.8l-94.7-54.7L961,928.8V1038.1z M1055.7,1095.8l-0.6-0.4
	l-96.6-55.8V927.3l0.6-0.4l96.6-55.8l97.3,56.2v112.3l-0.6,0.4L1055.7,1095.8"/>
<path id="path36" class="st0" d="M1248.2,872.3l95.5,55.1l95.5-55.1V762.1l-95.5-55.1l-95.5,55.1V872.3z M1343.7,928.6l-0.2-0.1
	l-96.2-55.6V761.5l0.2-0.1l96.2-55.6l96.5,55.7v111.4l-0.2,0.1L1343.7,928.6"/>
<path id="path38" class="st0" d="M1152.2,927.8l95.5,55.1l95.5-55.1V817.5l-95.5-55.1l-95.5,55.1V927.8z M1247.7,984l-0.2-0.1
	l-96.2-55.6V816.9l0.2-0.1l96.2-55.6l96.5,55.7v111.4l-0.2,0.1L1247.7,984"/>
<path id="path40" class="st0" d="M673.1,982.7l94.7,54.7l94.7-54.7V873.4l-94.7-54.7l-94.7,54.7V982.7z M767.8,1040.3l-0.6-0.4
	l-96.6-55.8V871.9l97.3-56.2l97.3,56.2v112.3l-0.6,0.4L767.8,1040.3"/>
<path id="path42" class="st0" d="M576.3,1038.6l95.5,55.1l95.5-55.1V928.3l-95.5-55.1l-95.5,55.1V1038.6z M671.8,1094.9l-0.2-0.1
	l-96.2-55.6V927.8l0.2-0.1l96.2-55.6l96.5,55.7v111.4l-0.2,0.1L671.8,1094.9"/>
<path id="path44" class="st0" d="M864.3,983.2l95.5,55.1l95.5-55.1V872.9l-95.5-55.1l-95.5,55.1V983.2z M959.8,1039.4l-0.2-0.1
	l-96.2-55.6V872.3l0.2-0.1l96.2-55.6l96.5,55.7v111.4l-0.2,0.1L959.8,1039.4"/>
<path id="path46" class="st0" d="M864.3,872.3l95.5,55.1l95.5-55.1V762.1l-95.5-55.1l-95.5,55.1V872.3z M959.8,928.6l-0.2-0.1
	l-96.2-55.6V761.5l0.2-0.1l96.2-55.6l96.5,55.7v111.4l-0.2,0.1L959.8,928.6"/>
<path id="path48" class="st0" d="M1345,1870l94.7,54.7l94.7-54.7v-109.3l-94.7-54.7l-94.7,54.7V1870z M1439.7,1927.7l-0.6-0.4
	l-96.6-55.8v-112.3l0.6-0.4l96.6-55.8l0.6,0.4l96.6,55.8v112.3l-0.6,0.4L1439.7,1927.7"/>
<path id="path50" class="st0" d="M1248.2,1925.9l95.5,55.1l95.5-55.1v-110.3l-95.5-55.1l-95.5,55.1V1925.9z M1343.7,1982.2l-0.2-0.1
	l-96.2-55.6v-111.4l0.2-0.1l96.2-55.6l0.2,0.1l96.2,55.6v111.4l-0.2,0.1L1343.7,1982.2"/>
<path id="path52" class="st0" d="M1152.2,1870.5l95.5,55.1l95.5-55.1v-110.3l-95.5-55.1l-95.5,55.1V1870.5z M1247.7,1926.7l-0.2-0.1
	l-96.2-55.6v-111.4l0.2-0.1l96.2-55.6l0.2,0.1l96.2,55.5V1871l-0.2,0.1L1247.7,1926.7"/>
<path id="path54" class="st0" d="M1153,1759.2l94.7,54.7l94.7-54.7v-109.4l-94.7-54.7l-94.7,54.7V1759.2z M1247.7,1816.8l-0.6-0.4
	l-96.6-55.8v-112.3l0.6-0.4l96.6-55.8l0.6,0.4l96.6,55.8v112.3l-0.6,0.4L1247.7,1816.8"/>
<path id="path56" class="st0" d="M576.3,1924.7l95.5,55.1l95.5-55.1v-110.3l-95.5-55.1l-95.5,55.1V1924.7z M671.8,1981l-0.2-0.1
	l-96.2-55.6v-111.4l0.2-0.1l96.2-55.6l0.2,0.1l96.2,55.6v111.4l-0.2,0.1L671.8,1981"/>
<path id="path58" class="st0" d="M384.3,1924.7l95.5,55.1l95.5-55.1v-110.3l-95.5-55.1l-95.5,55.1V1924.7z M479.8,1981l-0.2-0.1
	l-96.2-55.6v-111.4l0.2-0.1l96.2-55.6l0.2,0.1l96.2,55.6v111.4l-0.2,0.1L479.8,1981"/>
<path id="path60" class="st0" d="M384.3,1813.9l95.5,55.1l95.5-55.1v-110.3l-95.5-55.1l-95.5,55.1L384.3,1813.9z M479.8,1870.1
	l-0.2-0.1l-96.2-55.5v-111.4l0.2-0.1l96.2-55.6l0.2,0.1l96.2,55.5v111.4l-0.2,0.1L479.8,1870.1"/>
<path id="path62" class="st0" d="M1536.2,1704.8l95.5,55.1l95.5-55.1v-110.3l-95.5-55.1l-95.5,55.1V1704.8z M1631.7,1761.1l-0.2-0.1
	l-96.2-55.5V1594l0.2-0.1l96.2-55.5l0.2,0.1l96.2,55.6v111.4l-0.2,0.1L1631.7,1761.1"/>
<path id="path64" class="st0" d="M1440.2,1704.2l95.5,55.1l95.5-55.1v-110.3l-95.5-55.1l-95.5,55.1L1440.2,1704.2z M1535.7,1760.5
	l-0.2-0.1l-96.2-55.5v-111.4l0.2-0.1l96.2-55.6l0.2,0.1l96.2,55.6v111.4l-0.3,0.1L1535.7,1760.5"/>
<path id="path66" class="st0" d="M1728.1,1537.9l95.5,55.1l95.5-55.1v-110.3l-95.5-55.1l-95.5,55.1V1537.9z M1823.6,1594.2l-0.2-0.1
	l-96.2-55.6v-111.4l0.2-0.1l96.2-55.6l0.2,0.1l96.2,55.5v111.4l-0.2,0.1L1823.6,1594.2"/>
<path id="path68" class="st0" d="M1344.2,1648.8l95.5,55.1l95.5-55.1v-110.3l-95.5-55.1l-95.5,55.1V1648.8z M1439.7,1705l-0.2-0.1
	l-96.2-55.6v-111.4l0.2-0.1l96.2-55.5l0.2,0.1l96.2,55.6v111.4l-0.2,0.1L1439.7,1705"/>
<path id="path70" class="st0" d="M2112.9,1870l94.7,54.7l94.7-54.7v-109.3l-94.7-54.7l-94.7,54.7V1870z M2207.6,1927.7l-0.6-0.4
	l-96.6-55.8v-112.3l0.6-0.4l96.6-55.8l0.6,0.4l96.6,55.8v112.3l-0.6,0.4L2207.6,1927.7"/>
<path id="path72" class="st0" d="M2016.1,1925.9l95.5,55.1l95.5-55.1v-110.3l-95.5-55.1l-95.5,55.1V1925.9z M2111.6,1982.2l-0.2-0.1
	l-96.2-55.6v-111.4l0.2-0.1l96.2-55.6l0.2,0.1l96.2,55.6v111.4l-0.2,0.1L2111.6,1982.2"/>
<path id="path74" class="st0" d="M2304,1704.8l95.5,55.1l95.5-55.1v-110.3l-95.5-55.1l-95.5,55.1L2304,1704.8z M2399.5,1761.1
	l-0.2-0.1l-96.2-55.5V1594l0.2-0.1l96.2-55.5l0.2,0.1l96.2,55.6v111.4l-0.2,0.1L2399.5,1761.1"/>
<path id="path76" class="st0" d="M2208.1,1704.2l95.5,55.1l95.5-55.1v-110.3l-95.5-55.1l-95.5,55.1L2208.1,1704.2z M2303.6,1760.5
	l-0.2-0.1l-96.2-55.5v-111.4l0.2-0.1l96.2-55.6l0.2,0.1l96.2,55.6v111.4l-0.2,0.1L2303.6,1760.5"/>
<path id="path78" class="st0" d="M2112.1,1648.8l95.5,55.1l95.5-55.1v-110.3l-95.5-55.1l-95.5,55.1V1648.8z M2207.6,1705l-0.2-0.1
	l-96.2-55.6v-111.4l0.2-0.1l96.2-55.5l0.2,0.1l96.2,55.6v111.4l-0.2,0.1L2207.6,1705"/>
<path id="path80" class="st0" d="M1344.2,1537.9l95.5,55.1l95.5-55.1v-110.3l-95.5-55.1l-95.5,55.1V1537.9z M1439.7,1594.2l-0.2-0.1
	l-96.2-55.6v-111.4l0.2-0.1l96.2-55.6l0.2,0.1l96.2,55.5v111.4l-0.2,0.1L1439.7,1594.2"/>
<path id="path82" class="st0" d="M1536.2,1537.9l95.5,55.1l95.5-55.1v-110.3l-95.5-55.1l-95.5,55.1V1537.9z M1631.7,1594.2l-0.2-0.1
	l-96.2-55.6v-111.4l0.2-0.1l96.2-55.6l0.2,0.1l96.2,55.5v111.4l-0.2,0.1L1631.7,1594.2"/>
<path id="path84" class="st0" d="M1537,1426.7l94.7,54.7l94.7-54.7v-109.4l-94.7-54.7l-94.7,54.7V1426.7z M1631.7,1484.3l-0.6-0.4
	l-96.6-55.8v-112.3l0.6-0.4l96.6-55.8l0.6,0.4l96.6,55.8v112.3l-0.6,0.4L1631.7,1484.3"/>
<path id="path86" class="st0" d="M768.3,1149.4l95.5,55.1l95.5-55.1v-110.3L863.8,984l-95.5,55.1V1149.4z M863.8,1205.7l-0.2-0.1
	l-96.2-55.6v-111.4l0.2-0.1l96.2-55.6l0.2,0.1l96.2,55.6V1150l-0.2,0.1L863.8,1205.7"/>
<path id="path88" class="st0" d="M1152.2,1260.3l95.5,55.1l95.5-55.1V1150l-95.5-55.1l-95.5,55.1V1260.3z M1247.7,1316.5l-0.2-0.1
	l-96.2-55.6v-111.4l0.2-0.1l96.2-55.6l0.2,0.1l96.2,55.6v111.4l-0.2,0.1L1247.7,1316.5"/>
<path id="path90" class="st0" d="M1248.2,1150l95.5,55.1l95.5-55.1v-110.3l-95.5-55.1l-95.5,55.1V1150z M1343.7,1206.3l-0.2-0.1
	l-96.2-55.6v-111.4l0.2-0.1l96.2-55.6l0.2,0.1l96.2,55.6v111.4l-0.2,0.1L1343.7,1206.3"/>
<path id="path92" class="st0" d="M1345,1205l94.7,54.7l94.7-54.7v-109.4l-94.7-54.7l-94.7,54.7V1205z M1439.7,1262.6l-0.6-0.4
	l-96.6-55.8v-112.3l0.6-0.4l96.6-55.8l0.6,0.4l96.6,55.8v112.3l-0.6,0.4L1439.7,1262.6"/>
<path id="path94" class="st0" d="M1536.2,1038.6l95.5,55.1l95.5-55.1V928.3l-95.5-55.1l-95.5,55.1V1038.6z M1631.7,1094.9l-0.2-0.1
	l-96.2-55.6V927.8l0.2-0.1l96.2-55.6l96.5,55.7v111.4l-0.2,0.1L1631.7,1094.9"/>
<path id="path96" class="st0" d="M1440.2,1094l95.5,55.1l95.5-55.1V983.8l-95.5-55.1l-95.5,55.1V1094z M1535.7,1150.3l-0.2-0.1
	l-96.2-55.6V983.2l0.2-0.1l96.2-55.6l0.2,0.1l96.2,55.6v111.4l-0.3,0.1L1535.7,1150.3"/>
<path id="path98" class="st0" d="M1344.2,1038.6l95.5,55.1l95.5-55.1V928.3l-95.5-55.1l-95.5,55.1V1038.6z M1439.7,1094.9l-0.2-0.1
	l-96.2-55.6V927.8l0.2-0.1l96.2-55.6l96.5,55.7v111.4l-0.2,0.1L1439.7,1094.9"/>
<path id="path100" class="st0" d="M1440.2,1426.5l95.5,55.1l95.5-55.1v-110.3l-95.5-55.1l-95.5,55.1V1426.5z M1535.7,1482.8
	l-0.2-0.1l-96.2-55.6v-111.4l0.2-0.1l96.2-55.6l0.2,0.1l96.2,55.6v111.4l-0.2,0.1L1535.7,1482.8"/>
<path id="path102" class="st0" d="M1344.2,1427.1l95.5,55.1l95.5-55.1v-110.3l-95.5-55.1l-95.5,55.1V1427.1z M1439.7,1483.4
	l-0.2-0.1l-96.2-55.5v-111.4l0.2-0.1l96.2-55.6l0.2,0.1l96.2,55.6v111.4l-0.2,0.1L1439.7,1483.4"/>
<path id="path104" class="st0" d="M1632.1,1260.8l95.5,55.1l95.5-55.1v-110.3l-95.5-55.1l-95.5,55.1V1260.8z M1727.6,1317.1
	l-0.2-0.1l-96.2-55.6V1150l0.3-0.1l96.2-55.6l0.2,0.1l96.2,55.6v111.4l-0.2,0.1L1727.6,1317.1"/>
<path id="path106" class="st0" d="M1536.2,1316.3l95.5,55.1l95.5-55.1V1206l-95.5-55.1l-95.5,55.1V1316.3z M1631.7,1372.5l-0.2-0.1
	l-96.2-55.6v-111.4l0.2-0.1l96.2-55.6l0.2,0.1l96.2,55.6v111.4l-0.2,0.1L1631.7,1372.5"/>
<path id="path108" class="st0" d="M576.3,1592.2l95.5,55.1l95.5-55.1v-110.3l-95.5-55.1l-95.5,55.1V1592.2z M671.8,1648.5l-0.2-0.1
	l-96.2-55.6v-111.4l0.2-0.1l96.2-55.5l0.2,0.1l96.2,55.6v111.4l-0.2,0.1L671.8,1648.5"/>
<path id="path110" class="st0" d="M768.3,1425.4l95.5,55.1l95.5-55.1v-110.3l-95.5-55.1l-95.5,55.1V1425.4z M863.8,1481.6l-0.2-0.1
	l-96.2-55.5v-111.4l0.2-0.1l96.2-55.6l0.2,0.1l96.2,55.6v111.4l-0.2,0.1L863.8,1481.6"/>
<path id="path112" class="st0" d="M672.3,1480.8l95.5,55.1l95.5-55.1v-110.3l-95.5-55.1l-95.5,55.1V1480.8z M767.8,1537l-0.2-0.1
	l-96.2-55.6V1370l0.2-0.1l96.2-55.6l0.2,0.1l96.2,55.6v111.4l-0.2,0.1L767.8,1537"/>
<path id="path114" class="st0" d="M672.3,1813.3l95.5,55.1l95.5-55.1V1703l-95.5-55.1l-95.5,55.1V1813.3z M767.8,1869.5l-0.2-0.1
	l-96.2-55.5v-111.4l0.2-0.1l96.2-55.6l0.2,0.1l96.2,55.5v111.4l-0.2,0.1L767.8,1869.5"/>
<path id="path116" class="st0" d="M576.3,1813.9l95.5,55.1l95.5-55.1v-110.3l-95.5-55.1l-95.5,55.1V1813.9z M671.8,1870.1l-0.2-0.1
	l-96.2-55.6v-111.4l0.2-0.1l96.2-55.5l0.2,0.1l96.2,55.6v111.4l-0.2,0.1L671.8,1870.1"/>
<path id="path118" class="st0" d="M865.1,1647.1l94.7,54.7l94.7-54.7v-109.4l-94.7-54.7l-94.7,54.7V1647.1z M959.8,1704.8l-0.6-0.4
	l-96.6-55.8v-112.3l0.6-0.4l96.6-55.8l0.6,0.4l96.6,55.8v112.3l-0.6,0.4L959.8,1704.8"/>
<path id="path120" class="st0" d="M768.3,1703l95.5,55.1l95.5-55.1v-110.3l-95.5-55.1l-95.5,55.1V1703z M863.8,1759.3l-0.2-0.1
	l-96.2-55.5v-111.4l0.2-0.1l96.2-55.6l0.2,0.1l96.2,55.5v111.4l-0.2,0.1L863.8,1759.3"/>
<path id="path122" class="st0" d="M864.3,1370.5l95.5,55.1l95.5-55.1v-110.3l-95.5-55.1l-95.5,55.1V1370.5z M959.8,1426.7l-0.2-0.1
	l-96.2-55.6v-111.4l0.2-0.1l96.2-55.6l0.2,0.1l96.2,55.6V1371l-0.2,0.1L959.8,1426.7"/>
<path id="path124" class="st0" d="M1056.2,1314.5l95.5,55.1l95.5-55.1v-110.3l-95.5-55.1l-95.5,55.1L1056.2,1314.5z M1151.7,1370.8
	l-0.2-0.1l-96.2-55.6v-111.4l0.2-0.1l96.2-55.6l0.2,0.1l96.2,55.6v111.4l-0.2,0.1L1151.7,1370.8"/>
<path id="path126" class="st0" d="M1056.2,1647l95.5,55.1l95.5-55.1v-110.3l-95.5-55.1l-95.5,55.1V1647z M1151.7,1703.3l-0.2-0.1
	l-96.2-55.6v-111.4l0.2-0.1l96.2-55.6l0.2,0.1l96.2,55.6v111.4l-0.2,0.1L1151.7,1703.3"/>
<path id="path128" class="st0" d="M960.2,1648.8l95.5,55.1l95.5-55.1v-110.3l-95.5-55.1l-95.5,55.1V1648.8z M1055.7,1705.1l-0.2-0.1
	l-96.2-55.5V1538l0.2-0.1l96.2-55.5l0.2,0.1l96.2,55.6v111.4l-0.2,0.1L1055.7,1705.1"/>
<path id="path130" class="st0" d="M960.2,1537.1l95.5,55.1l95.5-55.1v-110.3l-95.5-55.1l-95.5,55.1V1537.1z M1055.7,1593.3l-0.2-0.1
	l-96.2-55.6v-111.4l0.2-0.1l96.2-55.5l0.2,0.1l96.2,55.6v111.4l-0.2,0.1L1055.7,1593.3"/>
<path id="path132" class="st0" d="M2016.9,1538.1l94.7,54.7l94.7-54.7v-109.4l-94.7-54.7l-94.7,54.7V1538.1z M2111.6,1595.7
	l-0.6-0.4l-96.6-55.8v-112.3l0.6-0.4l96.6-55.8l0.6,0.4l96.6,55.8v112.3l-0.6,0.4L2111.6,1595.7"/>
<path id="path134" class="st0" d="M1920.1,1538l95.5,55.1l95.5-55.1v-110.3l-95.5-55.1l-95.5,55.1V1538z M2015.6,1594.2l-0.2-0.1
	l-96.2-55.6v-111.4l0.2-0.1l96.2-55.6l0.2,0.1l96.2,55.6v111.4l-0.2,0.1L2015.6,1594.2"/>
<path id="path136" class="st0" d="M2208.1,1371.7l95.5,55.1l95.5-55.1v-110.3l-95.5-55.1l-95.5,55.1V1371.7z M2303.6,1427.9
	l-0.2-0.1l-96.2-55.6v-111.4l0.2-0.1l96.2-55.6l0.2,0.1l96.2,55.6v111.4l-0.2,0.1L2303.6,1427.9"/>
<path id="path138" class="st0" d="M2112.9,1426.7l94.7,54.7l94.7-54.7v-109.4l-94.7-54.7l-94.7,54.7L2112.9,1426.7z M2207.6,1484.3
	l-0.6-0.4l-96.6-55.8v-112.3l0.6-0.4l96.6-55.8l0.6,0.4l96.6,55.8v112.3l-0.6,0.4L2207.6,1484.3"/>
<path id="path140" class="st0" d="M1824.1,1482.5l95.5,55.1l95.5-55.1v-110.3l-95.5-55.1l-95.5,55.1V1482.5z M1919.6,1538.8
	l-0.2-0.1l-96.2-55.6v-111.4l0.2-0.1l96.2-55.6l0.2,0.1l96.2,55.6v111.4l-0.2,0.1L1919.6,1538.8"/>
<path id="path142" class="st0" d="M2016.1,1371.7l95.5,55.1l95.5-55.1v-110.3l-95.5-55.1l-95.5,55.1V1371.7z M2111.6,1427.9
	l-0.2-0.1l-96.2-55.6v-111.4l0.2-0.1l96.2-55.6l0.2,0.1l96.2,55.6v111.4l-0.2,0.1L2111.6,1427.9"/>
<path id="path144" class="st0" d="M2016.1,1260.9l95.5,55.1l95.5-55.1v-110.3l-95.5-55.1l-95.5,55.1V1260.9z M2111.6,1317.1
	l-0.2-0.1l-96.2-55.6V1150l0.2-0.1l96.2-55.6l0.2,0.1l96.2,55.6v111.4l-0.2,0.1L2111.6,1317.1"/>
<path id="path146" class="st0" d="M1824.1,1039.2l95.5,55.1l95.5-55.1V928.9l-95.5-55.1l-95.5,55.1V1039.2z M1919.6,1095.5l-0.2-0.1
	l-96.2-55.6V928.4l0.2-0.1l96.2-55.6l0.2,0.1l96.2,55.6v111.4l-0.2,0.1L1919.6,1095.5"/>
<path id="path148" class="st0" d="M1824.1,1260.9l95.5,55.1l95.5-55.1v-110.3l-95.5-55.1l-95.5,55.1V1260.9z M1919.6,1317.1
	l-0.2-0.1l-96.2-55.6v-111.4l0.2-0.1l96.2-55.6l0.2,0.1l96.2,55.6v111.4l-0.2,0.1L1919.6,1317.1"/>
<path id="path150" class="st0" d="M2112.1,1094.6l95.5,55.1l95.5-55.1V984.3l-95.5-55.1l-95.5,55.1V1094.6z M2207.6,1150.8l-0.2-0.1
	l-96.2-55.6V983.8l0.2-0.1l96.2-55.6l0.2,0.1l96.2,55.6v111.4l-0.2,0.1L2207.6,1150.8"/>
<path id="path152" class="st0" d="M2016.9,1149.6l94.7,54.7l94.7-54.7v-109.4l-94.7-54.7l-94.7,54.7V1149.6z M2111.6,1207.2
	l-0.6-0.4l-96.6-55.8v-112.3l0.6-0.4l96.6-55.8l0.6,0.4l96.6,55.8V1151l-0.6,0.4L2111.6,1207.2"/>
<path id="path154" class="st0" d="M1920.1,983.8l95.5,55.1l95.5-55.1V873.5l-95.5-55.1l-95.5,55.1V983.8z M2015.6,1040.1l-0.2-0.1
	l-96.2-55.6V873l0.2-0.1l96.2-55.6l96.5,55.7v111.4l-0.2,0.1L2015.6,1040.1"/>
<path id="path156" class="st0" d="M2016.1,817.5l95.5,55.1l95.5-55.1V707.3l-95.5-55.1l-95.5,55.1V817.5z M2111.6,873.8l-96.5-55.7
	V706.7l0.2-0.1l96.2-55.6l96.5,55.7v111.4l-0.2,0.1L2111.6,873.8"/>
<path id="path158" class="st0" d="M1920.1,873l95.5,55.1l95.5-55.1V762.7l-95.5-55.1l-95.5,55.1V873z M2015.6,929.2l-0.2-0.1
	l-96.2-55.6V762.1l0.2-0.1l96.2-55.6l96.5,55.7v111.4l-0.2,0.1L2015.6,929.2"/>
<path id="path160" class="st0" d="M1728.1,1316.3l95.5,55.1l95.5-55.1V1206l-95.5-55.1l-95.5,55.1V1316.3z M1823.6,1372.5l-0.2-0.1
	l-96.2-55.6v-111.4l0.2-0.1l96.2-55.6l0.2,0.1l96.2,55.6v111.4l-0.2,0.1L1823.6,1372.5"/>
<path id="path162" class="st0" d="M1728.1,1150.1l95.5,55.1l95.5-55.1v-110.3l-95.5-55.1l-95.5,55.1V1150.1z M1823.6,1206.3
	l-0.2-0.1l-96.2-55.6v-111.4l0.2-0.1l96.2-55.6l0.2,0.1l96.2,55.6v111.4l-0.2,0.1L1823.6,1206.3"/>
<path id="path164" class="st0" d="M192.4,1759.1l95.5,55.1l95.5-55.1v-110.3l-95.5-55.1l-95.5,55.1V1759.1z M287.9,1815.3l-0.2-0.1
	l-96.2-55.5v-111.4l0.2-0.1l96.2-55.6l0.2,0.1l96.2,55.5v111.4l-0.2,0.1L287.9,1815.3"/>
<path id="path166" class="st0" d="M97.2,1758l94.7,54.7l94.7-54.7v-109.3l-94.7-54.7l-94.7,54.7V1758z M191.9,1815.6l-0.6-0.4
	l-96.6-55.8v-112.3l0.6-0.4l96.6-55.8l0.6,0.4l96.6,55.8v112.3l-0.6,0.4L191.9,1815.6"/>
<path id="path168" class="st0" d="M384.3,1592.2l95.5,55.1l95.5-55.1v-110.3l-95.5-55.1l-95.5,55.1V1592.2z M479.8,1648.4l-0.2-0.1
	l-96.2-55.6v-111.4l0.2-0.1l96.2-55.6l0.2,0.1l96.2,55.6v111.4l-0.2,0.1L479.8,1648.4"/>
<path id="path170" class="st0" d="M288.3,1647.6l95.5,55.1l95.5-55.1v-110.3l-95.5-55.1l-95.5,55.1L288.3,1647.6z M383.9,1703.9
	l-0.2-0.1l-96.2-55.6v-111.4l0.2-0.1l96.2-55.5l0.2,0.1l96.2,55.6v111.4l-0.2,0.1L383.9,1703.9"/>
<path id="path172" class="st0" d="M1.2,1702.6l94.7,54.7l94.7-54.7v-109.4l-94.7-54.7l-94.7,54.7V1702.6z M95.9,1760.2l-0.6-0.4
	L-1.4,1704v-112.3l0.6-0.4l96.6-55.8l0.6,0.4l96.6,55.8V1704l-0.6,0.4L95.9,1760.2"/>
<path id="path174" class="st0" d="M0.4,1592.2l95.5,55.1l95.5-55.1v-110.3l-95.5-55.1l-95.5,55.1V1592.2z M95.9,1648.4l-0.2-0.1
	l-96.2-55.6v-111.4l0.2-0.1l96.2-55.6l0.2,0.1l96.2,55.6v111.4l-0.2,0.1L95.9,1648.4"/>
<path id="path176" class="st0" d="M192.4,1592.2l95.5,55.1l95.5-55.1v-110.3l-95.5-55.1l-95.5,55.1V1592.2z M287.9,1648.4l-0.2-0.1
	l-96.2-55.6v-111.4l0.2-0.1l96.2-55.6l0.2,0.1l96.2,55.6v111.4l-0.2,0.1L287.9,1648.4"/>
<path id="path178" class="st0" d="M192.4,1481.4l95.5,55.1l95.5-55.1v-110.3l-95.5-55.1l-95.5,55.1V1481.4z M287.9,1537.6l-0.2-0.1
	l-96.2-55.5v-111.4l0.2-0.1l96.2-55.6l0.2,0.1l96.2,55.6v111.4l-0.2,0.1L287.9,1537.6"/>
<path id="path180" class="st0" d="M96.4,1480.8l95.5,55.1l95.5-55.1v-110.3l-95.5-55.1l-95.5,55.1L96.4,1480.8z M191.9,1537
	l-0.2-0.1l-96.2-55.6v-111.4l0.2-0.1l96.2-55.6l0.2,0.1l96.2,55.6v111.4l-0.2,0.1L191.9,1537"/>
<path id="path182" class="st0" d="M0.4,1481.4l95.5,55.1l95.5-55.1v-110.3L95.9,1316l-95.5,55.1V1481.4z M95.9,1537.6l-0.2-0.1
	l-96.2-55.5v-111.4l0.2-0.1l96.2-55.6l0.2,0.1l96.2,55.6v111.4l-0.2,0.1L95.9,1537.6"/>
<path id="path184" class="st0" d="M288.3,1315.1l95.5,55.1l95.5-55.1v-110.3l-95.5-55.1l-95.5,55.1V1315.1z M383.9,1371.3l-0.2-0.1
	l-96.2-55.6v-111.4l0.2-0.1l96.2-55.6l0.2,0.1l96.2,55.6v111.4l-0.2,0.1L383.9,1371.3"/>
<path id="path186" class="st0" d="M193.2,1370.1l94.7,54.7l94.7-54.7v-109.4l-94.7-54.7l-94.7,54.7V1370.1z M287.9,1427.7l-0.6-0.4
	l-96.6-55.8v-112.3l0.6-0.4l96.6-55.8l0.6,0.4l96.6,55.8v112.3l-0.6,0.4L287.9,1427.7"/>
<path id="path188" class="st0" d="M577.1,1591.8l94.7,54.7l94.7-54.7v-109.4l-94.7-54.7l-94.7,54.7V1591.8z M671.8,1649.4l-0.6-0.4
	l-96.6-55.8v-112.3l0.6-0.4l96.6-55.8l0.6,0.4l96.6,55.8v112.3l-0.6,0.4L671.8,1649.4"/>
<path id="path190" class="st0" d="M480.3,1536.8l95.5,55.1l95.5-55.1v-110.3l-95.5-55.1l-95.5,55.1V1536.8z M575.8,1593l-0.2-0.1
	l-96.2-55.6v-111.4l0.2-0.1l96.2-55.6l0.2,0.1l96.2,55.6v111.4l-0.2,0.1L575.8,1593"/>
<path id="path192" class="st0" d="M481.1,1425.5l94.7,54.7l94.7-54.7v-109.4l-94.7-54.7l-94.7,54.7V1425.5z M575.8,1483.1l-0.6-0.4
	l-96.6-55.8v-112.3l0.6-0.4l96.6-55.8l0.6,0.4l96.6,55.8V1427l-0.6,0.4L575.8,1483.1"/>
<path id="path194" class="st0" d="M384.3,1259.7l95.5,55.1l95.5-55.1v-110.3l-95.5-55.1l-95.5,55.1V1259.7z M479.8,1315.9l-0.2-0.1
	l-96.2-55.6v-111.4l0.2-0.1l96.2-55.6l0.2,0.1l96.2,55.6v111.4l-0.2,0.1L479.8,1315.9"/>
<path id="path196" class="st0" d="M480.3,1315.1l95.5,55.1l95.5-55.1v-110.3l-95.5-55.1l-95.5,55.1V1315.1z M575.8,1371.4l-0.2-0.1
	l-96.2-55.6v-111.4l0.2-0.1l96.2-55.6l0.2,0.1l96.2,55.6v111.4l-0.2,0.1L575.8,1371.4"/>
<path id="path198" class="st0" d="M2016.1,1925.9l95.5,55.1l95.5-55.1v-110.3l-95.5-55.1l-95.5,55.1V1925.9z M2111.6,1982.1
	l-0.2-0.1l-96.2-55.5V1815l0.2-0.1l96.2-55.6l0.2,0.1l96.2,55.5v111.4l-0.3,0.1L2111.6,1982.1"/>
<path id="path200" class="st0" d="M1632.1,1925.9l95.5,55.1l95.5-55.1v-110.3l-95.5-55.1l-95.5,55.1V1925.9z M1727.6,1982.1
	l-0.2-0.1l-96.2-55.5V1815l0.2-0.1l96.2-55.6l0.2,0.1l96.2,55.5v111.4l-0.2,0.1L1727.6,1982.1"/>
<path id="path202" class="st0" d="M1824.1,1925.9l95.5,55.1l95.5-55.1v-110.3l-95.5-55.1l-95.5,55.1V1925.9z M1919.6,1982.1
	l-0.2-0.1l-96.2-55.5V1815l0.2-0.1l96.2-55.6l0.2,0.1l96.2,55.5v111.4l-0.2,0.1L1919.6,1982.1"/>
<path id="path204" class="st0" d="M1824.1,1815l95.5,55.1l95.5-55.1v-110.3l-95.5-55.1l-95.5,55.1V1815z M1919.6,1871.3l-0.2-0.1
	l-96.2-55.6v-111.4l0.2-0.1l96.2-55.5l0.2,0.1l96.2,55.6v111.4l-0.2,0.1L1919.6,1871.3"/>
<path id="path206" class="st0" d="M1728.1,1815.6l95.5,55.1l95.5-55.1v-110.3l-95.5-55.1l-95.5,55.1V1815.6z M1823.6,1871.9
	l-0.2-0.1l-96.2-55.6v-111.4l0.2-0.1l96.2-55.6l0.2,0.1l96.2,55.6v111.4l-0.2,0.1L1823.6,1871.9"/>
<path id="path208" class="st0" d="M1632.1,1815.1l95.5,55.1l95.5-55.1v-110.3l-95.5-55.1l-95.5,55.1V1815.1z M1727.6,1871.3
	l-0.2-0.1l-96.2-55.5v-111.4l0.2-0.1l96.2-55.5l0.2,0.1l96.2,55.6v111.4l-0.2,0.1L1727.6,1871.3"/>
<path id="path210" class="st0" d="M1920.1,1648.8l95.5,55.1l95.5-55.1v-110.3l-95.5-55.1l-95.5,55.1V1648.8z M2015.6,1705l-0.2-0.1
	l-96.2-55.5v-111.4l0.2-0.1l96.2-55.6l0.2,0.1l96.2,55.6v111.4l-0.2,0.1L2015.6,1705"/>
<path id="path212" class="st0" d="M1824.1,1704.2l95.5,55.1l95.5-55.1v-110.3l-95.5-55.1l-95.5,55.1V1704.2z M1919.6,1760.4
	l-0.2-0.1l-96.2-55.6v-111.4l0.2-0.1l96.2-55.6l0.2,0.1l96.2,55.5v111.4l-0.2,0.1L1919.6,1760.4"/>
<path id="path214" class="st0" d="M2016.1,1704.2l95.5,55.1l95.5-55.1v-110.3l-95.5-55.1l-95.5,55.1V1704.2z M2111.6,1760.4
	l-0.2-0.1l-96.2-55.6v-111.4l0.2-0.1l96.2-55.6l0.2,0.1l96.2,55.5v111.4l-0.2,0.1L2111.6,1760.4"/>
<path id="path216" class="st0" d="M2304.8,1094.2l94.7,54.7l94.7-54.7V984.8l-94.7-54.7l-94.7,54.7V1094.2z M2399.5,1151.8l-0.6-0.4
	l-96.6-55.8V983.4l0.6-0.4l96.6-55.8l0.6,0.4l96.6,55.8v112.3l-0.6,0.4L2399.5,1151.8"/>
<path id="path218" class="st0" d="M2304,1538l95.5,55.1l95.5-55.1v-110.3l-95.5-55.1l-95.5,55.1V1538z M2399.5,1594.2l-0.2-0.1
	l-96.2-55.6v-111.4l0.2-0.1l96.2-55.6l0.2,0.1l96.2,55.6v111.4l-0.2,0.1L2399.5,1594.2"/>
<path id="path220" class="st0" d="M2304,1205.5l95.5,55.1l95.5-55.1v-110.3l-95.5-55.1l-95.5,55.1V1205.5z M2399.5,1261.7l-0.2-0.1
	l-96.2-55.6v-111.4l0.2-0.1l96.2-55.6l0.2,0.1l96.2,55.6V1206l-0.2,0.1L2399.5,1261.7"/>
<path id="path222" class="st0" d="M1152.2,1538l95.5,55.1l95.5-55.1v-110.3l-95.5-55.1l-95.5,55.1V1538z M1247.7,1594.2l-0.2-0.1
	l-96.2-55.6v-111.4l0.2-0.1l96.2-55.6l0.2,0.1l96.2,55.6v111.4l-0.2,0.1L1247.7,1594.2"/>
<path id="path224" class="st0" d="M768.3,1204.2l95.5,55.1l95.5-55.1V1094l-95.5-55.1l-95.5,55.1V1204.2z M863.8,1260.5l-0.2-0.1
	l-96.2-55.6v-111.4l0.2-0.1l96.2-55.6l0.2,0.1l96.2,55.6v111.4l-0.2,0.1L863.8,1260.5"/>
<path id="path226" class="st0" d="M672.3,1259.7l95.5,55.1l95.5-55.1v-110.3l-95.5-55.1l-95.5,55.1V1259.7z M767.8,1315.9l-0.2-0.1
	l-96.2-55.6v-111.4l0.2-0.1l96.2-55.6l0.2,0.1l96.2,55.6v111.4l-0.2,0.1L767.8,1315.9"/>
<path id="path228" class="st1" d="M302.1,1097.8c0,4-3.2,7.2-7.2,7.2c-4,0-7.2-3.2-7.2-7.2c0-4,3.2-7.2,7.2-7.2
	C298.9,1090.6,302.1,1093.8,302.1,1097.8"/>
<path id="path230" class="st1" d="M1519,831c0,4-3.2,7.2-7.2,7.2c-4,0-7.2-3.2-7.2-7.2c0-4,3.2-7.2,7.2-7.2
	C1515.8,823.8,1519,827,1519,831"/>
<path id="path232" class="st1" d="M2214.8,928.6c0,4-3.2,7.2-7.2,7.2c-4,0-7.2-3.2-7.2-7.2c0-4,3.2-7.2,7.2-7.2
	C2211.5,921.4,2214.8,924.6,2214.8,928.6"/>
<path id="path234" class="st1" d="M1734.8,1427.7c0,4-3.2,7.2-7.2,7.2c-4,0-7.2-3.2-7.2-7.2c0-4,3.2-7.2,7.2-7.2
	C1731.6,1420.5,1734.8,1423.7,1734.8,1427.7"/>
<path id="path236" class="st1" d="M1158.8,1370.2c0,4-3.2,7.2-7.2,7.2c-4,0-7.2-3.2-7.2-7.2c0-4,3.2-7.2,7.2-7.2
	C1155.6,1363,1158.8,1366.3,1158.8,1370.2"/>
<path id="path238" class="st1" d="M775,1038.9c0,4-3.2,7.2-7.2,7.2c-4,0-7.2-3.2-7.2-7.2c0-4,3.2-7.2,7.2-7.2
	C771.8,1031.7,775,1034.9,775,1038.9"/>
<path id="path240" class="st1" d="M7.1,1370.8c0,4-3.2,7.2-7.2,7.2c-4,0-7.2-3.2-7.2-7.2c0-4,3.2-7.2,7.2-7.2
	C3.9,1363.7,7.1,1366.9,7.1,1370.8"/>
<path id="path242" class="st1" d="M583,1703.2c0,4-3.2,7.2-7.2,7.2c-4,0-7.2-3.2-7.2-7.2c0-4,3.2-7.2,7.2-7.2
	C579.8,1696,583,1699.2,583,1703.2"/>
<path id="path244" class="st1" d="M295.1,1537.1c0,4-3.2,7.2-7.2,7.2c-4,0-7.2-3.2-7.2-7.2c0-4,3.2-7.2,7.2-7.2
	C291.8,1529.9,295.1,1533.1,295.1,1537.1"/>
<path id="path246" class="st1" d="M1830.8,1150.3c0,4-3.2,7.2-7.2,7.2c-4,0-7.2-3.2-7.2-7.2c0-4,3.2-7.2,7.2-7.2
	C1827.6,1143.1,1830.8,1146.3,1830.8,1150.3"/>
</svg>
