<svg aria-hidden="true" style="position: absolute; width: 0; height: 0; overflow: hidden;" version="1.1" xmlns="http://www.w3.org/2000/svg" xmlns:xlink="http://www.w3.org/1999/xlink">
<defs>
<symbol id="icon-Facebook" viewBox="0 0 32 32">
<path d="M18.422 11.142h1.329v-2.313c-0.56-0.065-1.21-0.102-1.867-0.102-0.024 0-0.047 0-0.071 0h0.004c-1.915 0-3.226 1.204-3.226 3.418v2.036h-2.113v2.585h2.113v6.505h2.59v-6.505h2.028l0.321-2.585h-2.349v-1.782c0-0.747 0.201-1.258 1.243-1.258z"></path>
</symbol>
<symbol id="icon-instagram2" viewBox="0 0 32 32">
<path d="M23.258 13.004c-0.033-0.773-0.159-1.304-0.337-1.764-0.193-0.505-0.479-0.936-0.841-1.29l-0.001-0.001c-0.354-0.36-0.784-0.645-1.263-0.83l-0.024-0.008c-0.463-0.179-0.991-0.304-1.764-0.337-0.778-0.037-1.025-0.046-3.001-0.046s-2.222 0.009-2.998 0.043c-0.773 0.033-1.304 0.159-1.764 0.338-0.505 0.193-0.936 0.479-1.29 0.84l-0.001 0.001c-0.36 0.354-0.645 0.784-0.83 1.263l-0.008 0.024c-0.18 0.463-0.304 0.991-0.338 1.764-0.037 0.778-0.046 1.025-0.046 3.001s0.009 2.222 0.043 2.998c0.034 0.773 0.159 1.304 0.338 1.764 0.194 0.505 0.48 0.935 0.84 1.29l0.001 0c0.364 0.369 0.804 0.656 1.287 0.838 0.463 0.18 0.992 0.305 1.764 0.338 0.776 0.034 1.023 0.043 2.998 0.043s2.222-0.009 2.998-0.043c0.773-0.033 1.304-0.159 1.764-0.337 0.981-0.386 1.742-1.148 2.12-2.104l0.009-0.025c0.179-0.463 0.304-0.992 0.338-1.764 0.034-0.776 0.042-1.023 0.042-2.998s-0.003-2.222-0.036-2.998zM21.949 18.943c-0.032 0.711-0.151 1.094-0.25 1.349-0.251 0.637-0.745 1.131-1.365 1.376l-0.016 0.006c-0.255 0.099-0.641 0.218-1.349 0.249-0.767 0.034-0.997 0.043-2.938 0.043s-2.174-0.009-2.938-0.043c-0.711-0.031-1.094-0.151-1.35-0.25-0.328-0.122-0.606-0.307-0.834-0.542l-0.001-0.001c-0.235-0.229-0.42-0.508-0.538-0.819l-0.005-0.016c-0.099-0.256-0.218-0.642-0.249-1.35-0.034-0.767-0.043-0.998-0.043-2.938s0.009-2.175 0.043-2.938c0.031-0.711 0.151-1.094 0.249-1.35 0.122-0.328 0.308-0.608 0.545-0.835l0.001-0.001c0.229-0.235 0.509-0.42 0.821-0.537l0.016-0.005c0.255-0.099 0.641-0.218 1.349-0.25 0.767-0.033 0.998-0.042 2.938-0.042 1.943 0 2.174 0.008 2.938 0.042 0.711 0.031 1.094 0.151 1.35 0.25 0.315 0.116 0.602 0.301 0.835 0.543 0.241 0.236 0.426 0.52 0.543 0.836 0.099 0.255 0.218 0.641 0.249 1.349 0.034 0.767 0.043 0.997 0.043 2.938s-0.009 2.167-0.043 2.935z"></path>
<path d="M16.027 12.265c-0 0-0 0-0.001 0-2.064 0-3.737 1.673-3.737 3.737s1.673 3.737 3.737 3.737c2.064 0 3.737-1.673 3.737-3.737 0-0 0-0 0-0.001v0c-0-2.064-1.673-3.736-3.737-3.737h-0zM16.027 18.425c-1.339-0-2.424-1.085-2.424-2.424s1.085-2.424 2.424-2.424c0 0 0 0 0 0h-0c1.339 0 2.424 1.085 2.424 2.424s-1.085 2.424-2.424 2.424v0zM20.784 12.117c0 0.482-0.391 0.873-0.873 0.873s-0.873-0.391-0.873-0.873v0c0-0.482 0.391-0.873 0.873-0.873s0.873 0.391 0.873 0.873v0z"></path>
</symbol>
<symbol id="icon-telegram" viewBox="0 0 32 32">
<path d="M14.435 18.099l-0.241 3.046c0.344 0 0.493-0.133 0.672-0.293l1.615-1.388 3.344 2.204c0.613 0.308 1.045 0.145 1.211-0.508l2.195-9.257h0.001c0.195-0.817-0.327-1.135-0.925-0.935l-12.903 4.446c-0.881 0.308-0.868 0.749-0.15 0.95l3.299 0.924 7.663-4.316c0.36-0.215 0.688-0.096 0.418 0.119l-6.198 5.009z"></path>
</symbol>
<symbol id="icon-chrome" viewBox="0 0 32 32">
<path d="M16 22c-0.095 0-0.19-0.002-0.285-0.007h-0c-0.035-0.002-0.062-0.031-0.062-0.066 0-0.012 0.003-0.023 0.009-0.033l2.509-4.345c0.312-0.437 0.496-0.972 0.496-1.55 0-0.546-0.164-1.054-0.446-1.477l0 0c-0.008-0.011-0.012-0.024-0.012-0.039 0-0.035 0.026-0.064 0.060-0.068l3.35-0.372c0.002-0 0.005-0 0.007-0 0.029 0 0.053 0.018 0.063 0.044l-0.013-0.042c0.211 0.612 0.325 1.27 0.325 1.954 0 3.314-2.686 6-6 6-0.001 0-0.001 0-0.002 0zM14.849 21.837l1.348-3.077c0.004-0.009 0.006-0.018 0.006-0.028 0-0.038-0.031-0.069-0.069-0.069-0.002 0-0.003 0-0.004 0l0.006-0c-0.046 0.002-0.092 0.003-0.138 0.003-0.895 0-1.687-0.441-2.175-1.127h-0.003l-0.007-0.013c-0.088-0.127-0.165-0.26-0.231-0.4l-2.52-4.365c-0.011-0.019-0.033-0.033-0.057-0.033-0.023 0-0.043 0.012-0.055 0.029l0.014-0.023c-0.61 0.94-0.964 2.060-0.964 3.264 0 2.88 2.029 5.287 4.775 5.875l-0-0c0.004 0.001 0.009 0.001 0.013 0.001 0.027 0 0.050-0.016 0.061-0.039zM16 10h-0c0 0 0.001 0 0.001 0 2.304 0 4.305 1.299 5.326 3.237l-0-0c0.005 0.009 0.007 0.019 0.007 0.030 0 0.036-0.029 0.066-0.066 0.066h-5.269c-0 0-0.001 0-0.001 0-1.048 0-1.954 0.604-2.397 1.499l-0 0c-0.011 0.023-0.035 0.039-0.062 0.039-0.022 0-0.042-0.011-0.055-0.027l-1.999-2.718c-0.008-0.011-0.013-0.025-0.013-0.039 0-0.017 0.006-0.032 0.016-0.043l0.006-0.007c1.097-1.249 2.705-2.037 4.498-2.037 0.002 0 0.005 0 0.007 0zM16 18v0c-1.105 0-2-0.895-2-2s0.895-2 2-2v0c1.105 0 2 0.895 2 2s-0.895 2-2 2z"></path>
</symbol>
</defs>
</svg>
